<?xml version="1.0" standalone="no"?>
<!DOCTYPE svg PUBLIC "-//W3C//DTD SVG 20010904//EN"
 "http://www.w3.org/TR/2001/REC-SVG-20010904/DTD/svg10.dtd">
<svg version="1.0" xmlns="http://www.w3.org/2000/svg"
 width="494.000000pt" height="494.000000pt" viewBox="0 0 494.000000 494.000000"
 preserveAspectRatio="xMidYMid meet">
<metadata>
Created by potrace 1.14, written by Peter Selinger 2001-2017
</metadata>
<g transform="translate(0.000000,494.000000) scale(0.100000,-0.100000)"
fill="#000000" stroke="none">
<path d="M235 4859 c-86 -25 -165 -92 -206 -176 l-24 -48 -3 -2135 c-3 -2196
-3 -2194 35 -2272 24 -47 91 -110 148 -138 l50 -25 2235 0 2235 0 50 25 c64
32 124 92 155 155 l25 50 0 2170 0 2170 -24 49 c-31 63 -94 126 -156 156 l-50
25 -2220 2 c-1270 1 -2233 -2 -2250 -8z m4460 -82 c58 -23 92 -50 126 -101
l34 -51 3 -2146 c2 -2028 1 -2149 -15 -2188 -21 -48 -70 -102 -116 -128 -31
-17 -129 -18 -2232 -21 -2399 -2 -2265 -5 -2328 53 -15 15 -40 45 -55 68 l-27
42 0 2155 c0 2062 1 2157 18 2191 26 53 83 106 131 123 35 12 335 14 2236 14
1656 0 2202 -2 2225 -11z"/>
<path d="M885 2463 l0 -1088 470 0 c259 0 494 4 523 8 75 11 198 53 262 90 72
41 161 130 194 194 87 172 86 414 -1 576 -62 113 -216 230 -322 244 -56 8 -60
20 -14 39 213 85 309 211 317 417 12 302 -160 519 -469 594 -16 4 -239 8 -495
10 l-466 4 1 -1088z m915 839 c122 -30 209 -107 244 -217 69 -212 -50 -417
-275 -474 -59 -15 -117 -18 -345 -19 l-274 -1 0 363 0 363 303 -2 c183 -1 320
-6 347 -13z m-37 -946 c236 -26 404 -218 384 -437 -11 -126 -102 -240 -220
-278 -103 -33 -120 -34 -454 -36 l-323 -1 0 377 0 378 23 3 c37 5 535 1 590
-6z"/>
<path d="M3319 3015 c-142 -28 -245 -82 -345 -180 -77 -74 -127 -147 -169
-241 -90 -204 -106 -491 -39 -721 65 -225 214 -399 411 -481 179 -75 464 -71
639 8 146 66 265 185 309 310 l14 40 -37 10 c-20 5 -74 20 -119 34 l-82 24
-30 -52 c-50 -88 -101 -133 -197 -171 -59 -24 -84 -28 -169 -29 -114 -1 -151
5 -227 35 -53 21 -137 79 -171 119 -63 74 -109 191 -125 313 -7 58 -6 67 7 68
9 0 268 1 576 0 308 0 569 2 581 4 20 4 21 10 18 112 -4 199 -24 301 -84 428
-86 183 -221 299 -416 356 -88 25 -256 32 -345 14z m309 -243 c153 -59 258
-205 277 -384 l7 -68 -467 0 -467 0 5 48 c7 61 48 171 86 225 66 96 164 168
266 194 73 18 227 11 293 -15z"/>
</g>
</svg>
